<?xml version="1.0" encoding="UTF-8"?>
<svg xmlns="http://www.w3.org/2000/svg" xmlns:xlink="http://www.w3.org/1999/xlink"
     width="400" height="300" viewBox="0 0 400 300">
<defs>
<marker markerWidth="8.0" markerHeight="8.0" viewBox="-0.8 -0.5 1.0 1.0" orient="auto" id="d0">
<path d="M-0.8,-0.5 L0,0 L-0.8,0.5" fill="#27ae60" />
</marker>
</defs>
<rect x="0" y="0" width="400" height="300" fill="#faf8f5" />
<rect x="0" y="240" width="400" height="60" fill="#8B7355" opacity="0.15" />
<path d="M0,240 L400,240" stroke="#8B7355" stroke-width="2" />
<g transform="translate(200,222) rotate(-8)">
<path d="M -60 0 Q -68 -12, -55 -14 L 55 -4 Q 68 -12, 60 0 Z" fill="#2d2d2d" stroke="#2d2d2d" stroke-width="1" />
<circle cx="-40" cy="10" r="9" fill="#555555" />
<circle cx="-40" cy="10" r="4" fill="#777" />
<circle cx="40" cy="10" r="9" fill="#555555" />
<circle cx="40" cy="10" r="4" fill="#777" />
</g>
<path d="M193,205 L200,179.0" stroke="#e07020" stroke-width="4" stroke-linecap="round" />
<path d="M200,179.0 L205,161.0" stroke="#e07020" stroke-width="4" stroke-linecap="round" />
<path d="M217,205 L210,179.0" stroke="#e07020" stroke-width="4" stroke-linecap="round" />
<path d="M210,179.0 L205,161.0" stroke="#e07020" stroke-width="4" stroke-linecap="round" />
<path d="M205,161.0 L205,137.0" stroke="#e07020" stroke-width="4" stroke-linecap="round" />
<path d="M205,137.0 L185,152.0" stroke="#e07020" stroke-width="3" stroke-linecap="round" />
<path d="M205,137.0 L225,152.0" stroke="#e07020" stroke-width="3" stroke-linecap="round" />
<circle cx="205" cy="125" r="10" fill="#e07020" />
<path d="M280,222 L370,222" stroke="#27ae60" stroke-width="2" stroke-dasharray="6" marker-end="url(#d0)" />
<text x="320" y="212" font-size="11" fill="#27ae60" font-family="sans-serif" font-weight="bold">distance</text>
<path d="M290,240 L290,250" stroke="#8B7355" stroke-width="1" />
<text x="290" y="262" font-size="9" fill="#8B7355" font-family="sans-serif" text-anchor="middle">1m</text>
<path d="M330,240 L330,250" stroke="#8B7355" stroke-width="1" />
<text x="330" y="262" font-size="9" fill="#8B7355" font-family="sans-serif" text-anchor="middle">3m</text>
<path d="M370,240 L370,250" stroke="#8B7355" stroke-width="1" />
<text x="370" y="262" font-size="9" fill="#8B7355" font-family="sans-serif" text-anchor="middle">5m</text>
<text x="200" y="25" font-size="14" fill="#333333" font-family="sans-serif" text-anchor="middle" font-weight="bold">Phase 3 : Distance</text>
<text x="200" y="50" font-size="14" fill="#333333" font-family="sans-serif" text-anchor="middle" font-weight="bold">Augmente progressivement la distance</text>
</svg>