<?xml version="1.0" encoding="UTF-8"?>
<svg xmlns="http://www.w3.org/2000/svg" xmlns:xlink="http://www.w3.org/1999/xlink"
     width="400" height="300" viewBox="0 0 400 300">
<defs>
</defs>
<rect x="0" y="0" width="400" height="300" fill="#faf8f5" />
<rect x="0" y="240" width="400" height="60" fill="#8B7355" opacity="0.15" />
<path d="M0,240 L400,240" stroke="#8B7355" stroke-width="2" />
<g transform="translate(200,140) rotate(0)">
<path d="M -60 0 Q -68 -12, -55 -14 L 55 -4 Q 68 -12, 60 0 Z" fill="#2d2d2d" stroke="#2d2d2d" stroke-width="1" />
<circle cx="-40" cy="10" r="9" fill="#555555" />
<circle cx="-40" cy="10" r="4" fill="#777" />
<circle cx="40" cy="10" r="9" fill="#555555" />
<circle cx="40" cy="10" r="4" fill="#777" />
</g>
<path d="M188,125 L195,115.0" stroke="#e07020" stroke-width="4" stroke-linecap="round" />
<path d="M195,115.0 L200,89.25" stroke="#e07020" stroke-width="4" stroke-linecap="round" />
<path d="M212,125 L205,115.0" stroke="#e07020" stroke-width="4" stroke-linecap="round" />
<path d="M205,115.0 L200,89.25" stroke="#e07020" stroke-width="4" stroke-linecap="round" />
<path d="M200,89.25 L200,69.75" stroke="#e07020" stroke-width="4" stroke-linecap="round" />
<path d="M200,69.75 L180,84.75" stroke="#e07020" stroke-width="3" stroke-linecap="round" />
<path d="M200,69.75 L220,84.75" stroke="#e07020" stroke-width="3" stroke-linecap="round" />
<circle cx="200" cy="60" r="10" fill="#e07020" />
<path d="M320,240 L320,140" stroke="#e07020" stroke-width="1" stroke-dasharray="4" />
<text x="330" y="190" font-size="11" fill="#e07020" font-family="sans-serif">hauteur</text>
<text x="200" y="25" font-size="14" fill="#333333" font-family="sans-serif" text-anchor="middle" font-weight="bold">Phase 3 : En l'air</text>
<text x="200" y="50" font-size="14" fill="#333333" font-family="sans-serif" text-anchor="middle" font-weight="bold">Planche a plat, genoux montes</text>
</svg>