<?xml version="1.0" encoding="UTF-8"?>
<svg xmlns="http://www.w3.org/2000/svg" xmlns:xlink="http://www.w3.org/1999/xlink"
     width="400" height="300" viewBox="0 0 400 300">
<defs>
<marker markerWidth="8.0" markerHeight="8.0" viewBox="-0.8 -0.5 1.0 1.0" orient="auto" id="d0">
<path d="M-0.8,-0.5 L0,0 L-0.8,0.5" fill="#e07020" />
</marker>
</defs>
<rect x="0" y="0" width="400" height="300" fill="#faf8f5" />
<rect x="0" y="240" width="400" height="60" fill="#8B7355" opacity="0.15" />
<path d="M0,240 L400,240" stroke="#8B7355" stroke-width="2" />
<g transform="translate(200,222) rotate(-5)">
<path d="M -60 0 Q -68 -12, -55 -14 L 55 -4 Q 68 -12, 60 0 Z" fill="#2d2d2d" stroke="#2d2d2d" stroke-width="1" />
<circle cx="-40" cy="10" r="9" fill="#555555" />
<circle cx="-40" cy="10" r="4" fill="#777" />
<circle cx="40" cy="10" r="9" fill="#555555" />
<circle cx="40" cy="10" r="4" fill="#777" />
</g>
<path d="M188,208 L195,186.0" stroke="#e07020" stroke-width="4" stroke-linecap="round" />
<path d="M195,186.0 L200,164.0" stroke="#e07020" stroke-width="4" stroke-linecap="round" />
<path d="M212,208 L205,186.0" stroke="#e07020" stroke-width="4" stroke-linecap="round" />
<path d="M205,186.0 L200,164.0" stroke="#e07020" stroke-width="4" stroke-linecap="round" />
<path d="M200,164.0 L200,140.0" stroke="#e07020" stroke-width="4" stroke-linecap="round" />
<path d="M200,140.0 L180,155.0" stroke="#e07020" stroke-width="3" stroke-linecap="round" />
<path d="M200,140.0 L220,155.0" stroke="#e07020" stroke-width="3" stroke-linecap="round" />
<circle cx="200" cy="128" r="10" fill="#e07020" />
<path d="M155,225 L120,235" stroke="#e07020" stroke-width="2" marker-end="url(#d0)" />
<text x="142.5" y="225.0" font-size="12" fill="#e07020" font-family="sans-serif" font-weight="bold">SCOOP</text>
<path d="M171.80922137642276,179.73939570022995 A30,30,0,1,0,228.19077862357724,179.73939570022995" fill="none" stroke="#8e44ad" stroke-width="2" stroke-dasharray="4" />
<text x="235" y="185" font-size="11" fill="#8e44ad" font-family="sans-serif" font-weight="bold">180</text>
<text x="200" y="25" font-size="14" fill="#333333" font-family="sans-serif" text-anchor="middle" font-weight="bold">Phase 1 : Le Scoop</text>
<text x="200" y="50" font-size="14" fill="#333333" font-family="sans-serif" text-anchor="middle" font-weight="bold">Pousse le tail en arriere avec la cheville</text>
</svg>