<?xml version="1.0" encoding="UTF-8"?>
<svg xmlns="http://www.w3.org/2000/svg" xmlns:xlink="http://www.w3.org/1999/xlink"
     width="400" height="300" viewBox="0 0 400 300">
<defs>
<marker markerWidth="8.0" markerHeight="8.0" viewBox="-0.8 -0.5 1.0 1.0" orient="auto" id="d0">
<path d="M-0.8,-0.5 L0,0 L-0.8,0.5" fill="#c0392b" />
</marker>
<marker markerWidth="8.0" markerHeight="8.0" viewBox="-0.8 -0.5 1.0 1.0" orient="auto" id="d1">
<path d="M-0.8,-0.5 L0,0 L-0.8,0.5" fill="#2980b9" />
</marker>
</defs>
<rect x="0" y="0" width="400" height="300" fill="#faf8f5" />
<rect x="0" y="240" width="400" height="60" fill="#8B7355" opacity="0.15" />
<path d="M0,240 L400,240" stroke="#8B7355" stroke-width="2" />
<g transform="translate(200,190) rotate(0)">
<path d="M -60 0 Q -68 -12, -55 -14 L 55 -4 Q 68 -12, 60 0 Z" fill="#2d2d2d" stroke="#2d2d2d" stroke-width="1" />
<circle cx="-40" cy="10" r="9" fill="#555555" />
<circle cx="-40" cy="10" r="4" fill="#777" />
<circle cx="40" cy="10" r="9" fill="#555555" />
<circle cx="40" cy="10" r="4" fill="#777" />
</g>
<path d="M188,175 L195,159.0" stroke="#e07020" stroke-width="4" stroke-linecap="round" />
<path d="M195,159.0 L200,136.5" stroke="#e07020" stroke-width="4" stroke-linecap="round" />
<path d="M212,175 L205,159.0" stroke="#e07020" stroke-width="4" stroke-linecap="round" />
<path d="M205,159.0 L200,136.5" stroke="#e07020" stroke-width="4" stroke-linecap="round" />
<path d="M200,136.5 L200,115.5" stroke="#e07020" stroke-width="4" stroke-linecap="round" />
<path d="M200,115.5 L180,130.5" stroke="#e07020" stroke-width="3" stroke-linecap="round" />
<path d="M200,115.5 L220,130.5" stroke="#e07020" stroke-width="3" stroke-linecap="round" />
<circle cx="200" cy="105" r="10" fill="#e07020" />
<path d="M175,180 L170,190" stroke="#c0392b" stroke-width="2" marker-end="url(#d0)" />
<path d="M225,180 L230,190" stroke="#2980b9" stroke-width="2" marker-end="url(#d1)" />
<text x="310" y="185" font-size="13" fill="#27ae60" font-family="sans-serif" font-weight="bold">CATCH!</text>
<text x="200" y="25" font-size="14" fill="#333333" font-family="sans-serif" text-anchor="middle" font-weight="bold">Phase 3 : Catch</text>
<text x="200" y="50" font-size="14" fill="#333333" font-family="sans-serif" text-anchor="middle" font-weight="bold">Rattrape la planche avec les pieds</text>
</svg>