<?xml version="1.0" encoding="UTF-8"?>
<svg xmlns="http://www.w3.org/2000/svg" xmlns:xlink="http://www.w3.org/1999/xlink"
     width="400" height="300" viewBox="0 0 400 300">
<defs>
<marker markerWidth="6.0" markerHeight="6.0" viewBox="-0.8 -0.5 1.0 1.0" orient="auto" id="d0">
<path d="M-0.8,-0.5 L0,0 L-0.8,0.5" fill="#8e44ad" />
</marker>
<marker markerWidth="8.0" markerHeight="8.0" viewBox="-0.8 -0.5 1.0 1.0" orient="auto" id="d1">
<path d="M-0.8,-0.5 L0,0 L-0.8,0.5" fill="#27ae60" />
</marker>
</defs>
<rect x="0" y="0" width="400" height="300" fill="#faf8f5" />
<rect x="0" y="240" width="400" height="60" fill="#8B7355" opacity="0.15" />
<path d="M0,240 L400,240" stroke="#8B7355" stroke-width="2" />
<g transform="translate(200,185) rotate(45)">
<path d="M -60 0 Q -68 -12, -55 -14 L 55 -4 Q 68 -12, 60 0 Z" fill="#2d2d2d" stroke="#2d2d2d" stroke-width="1" />
<circle cx="-40" cy="10" r="9" fill="#555555" />
<circle cx="-40" cy="10" r="4" fill="#777" />
<circle cx="40" cy="10" r="9" fill="#555555" />
<circle cx="40" cy="10" r="4" fill="#777" />
</g>
<path d="M188,170 L195,152.0" stroke="#e07020" stroke-width="4" stroke-linecap="round" />
<path d="M195,152.0 L200,131.5" stroke="#e07020" stroke-width="4" stroke-linecap="round" />
<path d="M212,170 L205,152.0" stroke="#e07020" stroke-width="4" stroke-linecap="round" />
<path d="M205,152.0 L200,131.5" stroke="#e07020" stroke-width="4" stroke-linecap="round" />
<path d="M200,131.5 L200,110.5" stroke="#e07020" stroke-width="4" stroke-linecap="round" />
<path d="M200,110.5 L180,125.5" stroke="#e07020" stroke-width="3" stroke-linecap="round" />
<path d="M200,110.5 L220,125.5" stroke="#e07020" stroke-width="3" stroke-linecap="round" />
<circle cx="200" cy="100" r="10" fill="#e07020" />
<path d="M160.0,185.0 A40,40,0,1,0,239.39231012048833,178.05407289332274" fill="none" stroke="#8e44ad" stroke-width="2.5" marker-end="url(#d0)" />
<text x="290" y="140" font-size="11" fill="#27ae60" font-family="sans-serif" font-weight="bold">Corps droit !</text>
<path d="M280,145 L220,155" stroke="#27ae60" stroke-width="2" marker-end="url(#d1)" />
<text x="200" y="25" font-size="14" fill="#333333" font-family="sans-serif" text-anchor="middle" font-weight="bold">Phase 2 : Rotation</text>
<text x="200" y="50" font-size="14" fill="#333333" font-family="sans-serif" text-anchor="middle" font-weight="bold">La planche tourne, le corps reste droit</text>
</svg>