<?xml version="1.0" encoding="UTF-8"?>
<svg xmlns="http://www.w3.org/2000/svg" xmlns:xlink="http://www.w3.org/1999/xlink"
     width="400" height="300" viewBox="0 0 400 300">
<defs>
</defs>
<rect x="0" y="0" width="400" height="300" fill="#faf8f5" />
<rect x="0" y="240" width="400" height="60" fill="#8B7355" opacity="0.15" />
<path d="M0,240 L400,240" stroke="#8B7355" stroke-width="2" />
<g transform="translate(200,222) rotate(0)">
<path d="M -60 0 Q -68 -12, -55 -14 L 55 -4 Q 68 -12, 60 0 Z" fill="#2d2d2d" stroke="#2d2d2d" stroke-width="1" />
<circle cx="-40" cy="10" r="9" fill="#555555" />
<circle cx="-40" cy="10" r="4" fill="#777" />
<circle cx="40" cy="10" r="9" fill="#555555" />
<circle cx="40" cy="10" r="4" fill="#777" />
</g>
<path d="M188,208 L195,192.0" stroke="#e07020" stroke-width="4" stroke-linecap="round" />
<path d="M195,192.0 L200,164.0" stroke="#e07020" stroke-width="4" stroke-linecap="round" />
<path d="M212,208 L205,192.0" stroke="#e07020" stroke-width="4" stroke-linecap="round" />
<path d="M205,192.0 L200,164.0" stroke="#e07020" stroke-width="4" stroke-linecap="round" />
<path d="M200,164.0 L200,140.0" stroke="#e07020" stroke-width="4" stroke-linecap="round" />
<path d="M200,140.0 L180,155.0" stroke="#e07020" stroke-width="3" stroke-linecap="round" />
<path d="M200,140.0 L220,155.0" stroke="#e07020" stroke-width="3" stroke-linecap="round" />
<circle cx="200" cy="128" r="10" fill="#e07020" />
<circle cx="160" cy="222" r="6" fill="none" stroke="#27ae60" stroke-width="2" />
<circle cx="240" cy="222" r="6" fill="none" stroke="#27ae60" stroke-width="2" />
<text x="155" y="238" font-size="10" fill="#333333" font-family="sans-serif" text-anchor="middle">vis</text>
<text x="245" y="238" font-size="10" fill="#333333" font-family="sans-serif" text-anchor="middle">vis</text>
<text x="310" y="200" font-size="12" fill="#27ae60" font-family="sans-serif" font-weight="bold">180 OK</text>
<text x="200" y="25" font-size="14" fill="#333333" font-family="sans-serif" text-anchor="middle" font-weight="bold">Phase 4 : Reception</text>
<text x="200" y="50" font-size="14" fill="#333333" font-family="sans-serif" text-anchor="middle" font-weight="bold">Atterris sur les vis, genoux flechis</text>
</svg>